<svg xmlns="http://www.w3.org/2000/svg" width="489" height="141" fill="none"><path fill="#fff" d="M225.1 47.3c-2.9-1.3-6.4-2-10.4-2h-18.8v45.8h8.5V77.9h10.3c4 0 7.5-.7 10.4-2 3-1.3 5.1-3.2 6.7-5.6 1.6-2.4 2.4-5.3 2.4-8.7a15 15 0 0 0-9-14.3Zm-2.3 21c-2 1.6-4.8 2.4-8.5 2.4h-10V52.5h10c3.7 0 6.6.8 8.5 2.4a8.3 8.3 0 0 1 2.8 6.7c0 2.9-1 5.1-2.8 6.7ZM268 73.8a13 13 0 0 1-1 5.8 8 8 0 0 1-3.4 3.6c-1.4.7-3.1 1.1-5 1.1-2.6 0-4.6-.7-6-2.3-1.5-1.5-2.2-3.8-2.2-7V56.3h-8.2v20c0 3.4.6 6.3 2 8.6 1.2 2.2 3 4 5.2 5a17.6 17.6 0 0 0 15.3-.1c1.5-.8 2.8-1.9 3.8-3.1V91h7.8V56.2H268v17.6ZM294.8 61.3v-5.1H287v34.9h8.1V74.2c0-3.6 1-6.4 2.8-8.1a10.2 10.2 0 0 1 8.3-2.7l.9.1v-7.8c-3.3 0-6 .7-8.3 2-1.7.8-3 2-4 3.6ZM338 58a18.1 18.1 0 0 0-9.1-2.3c-3.4 0-6.6.8-9.3 2.4a16.9 16.9 0 0 0-6.4 6.3 18.1 18.1 0 0 0-2.3 9.2c0 3.5.7 6.6 2.3 9.3 1.6 2.6 3.9 4.8 6.8 6.3s6.2 2.3 10.1 2.3c3 0 5.8-.5 8.1-1.4 2.4-1 4.4-2.4 6-4.2l-4.4-5a12.4 12.4 0 0 1-9.5 3.8c-2.3 0-4.3-.5-6-1.4a9.6 9.6 0 0 1-5.3-7h27.4a17 17 0 0 0 0-2.4c0-3.7-.7-6.9-2.2-9.6A16.3 16.3 0 0 0 338 58Zm-18 9.3c.9-1.6 2-2.8 3.6-3.6 1.6-.9 3.3-1.3 5.3-1.3s3.7.4 5.2 1.3a9 9 0 0 1 3.5 3.6c.6 1 1 2.2 1.1 3.5h-19.8c.2-1.3.6-2.4 1.2-3.5ZM384.2 56.2h-8.9l-8.5 11.4-8.6-11.4h-9.1l13 17-13.5 17.9h9l9-12 9 12h9.2l-13.7-17.9 13-17ZM415.2 59.4c-2.8-2.4-6.7-3.7-11.8-3.7-2.8 0-5.5.4-8 1.2-2.6.7-4.8 1.8-6.7 3.2l3.2 6c1.3-1.1 3-2 4.8-2.6 1.9-.6 3.8-.9 5.7-.9 3 0 5.1.7 6.6 2a7.2 7.2 0 0 1 2.2 5.6v.5h-9c-3.6 0-6.4.5-8.6 1.4a9.5 9.5 0 0 0-4.6 3.7c-1 1.6-1.4 3.3-1.4 5.3s.6 3.8 1.6 5.4c1 1.5 2.6 2.8 4.6 3.7 2 .9 4.2 1.3 6.8 1.3 3.1 0 5.7-.6 7.7-1.7a9.3 9.3 0 0 0 3.3-3v4.3h7.7V70.6c0-5-1.4-8.8-4.1-11.2Zm-7.5 24.8c-1.6 1-3.4 1.4-5.4 1.4-2 0-3.7-.5-4.9-1.3-1.2-.9-1.8-2-1.8-3.5 0-1.3.5-2.5 1.5-3.4 1-.8 2.9-1.3 5.6-1.3h8.5v4a8 8 0 0 1-3.5 4.1ZM486.2 62.4c-1.2-2.3-3-4-5-5-2.2-1.1-4.7-1.7-7.5-1.7a17 17 0 0 0-9 2.5c-1.7 1-3 2.1-4 3.5-.8-1.5-2-2.6-3.2-3.5a14.8 14.8 0 0 0-8.5-2.5c-3 0-5.5.7-7.8 1.9-1.4.8-2.6 1.8-3.6 3v-4.4h-7.8v34.9h8V73.4c0-2.3.5-4.3 1.2-5.8a8 8 0 0 1 3.2-3.5c1.4-.8 3-1.2 4.8-1.2 2.5 0 4.4.8 5.8 2.3 1.4 1.5 2 3.8 2 7V91h8.1V73.4c0-2.3.4-4.3 1.2-5.8a8 8 0 0 1 3.2-3.5c1.4-.8 3-1.2 4.7-1.2 2.5 0 4.5.8 5.9 2.3 1.3 1.5 2 3.8 2 7V91h8.1V71c0-3.5-.6-6.4-1.8-8.7Z"/><mask id="a" width="179" height="141" x="0" y="0" maskUnits="userSpaceOnUse" style="mask-type:luminance"><path fill="#fff" d="M58 141 0 .7l124 8.9 54.8 93.9L58 141Z"/></mask><g mask="url(#a)"><path fill="#fff" d="m41.4 36.2-24.2.4a2 2 0 0 0-.8.2l-.5.5c-.2.2-.2.4-.2.6l.1.9 41 99.5a3.6 3.6 0 0 0 1.3 1.6l1 .4h.9L20.6 44.1V43.8a.5.5 0 0 1 0-.2l.2-.1a.6.6 0 0 1 .2-.1h.5a1.5 1.5 0 0 1 .6.4l.2.3L61.8 137a3.4 3.4 0 0 0 1.3 1.6l1 .3h.8l113-35.1.3-.3.1-.4v-.7l-.4-.7-38.3-65.5a3.4 3.4 0 0 0-1.5-1.4h-.5l-11.9.2 2.2 3.9 9.3-.3a1.2 1.2 0 0 1 .5.1 2 2 0 0 1 .5.3 3.9 3.9 0 0 1 .8.8l.2.2 33.6 58c.2.2.3.5.3.7l.1.6-.1.5-.3.2-105.2 30.3a2 2 0 0 1-.6 0 2.5 2.5 0 0 1-1.2-.3 3.2 3.2 0 0 1-1-1 3.9 3.9 0 0 1-.5-.7L28.3 44a2 2 0 0 1-.1-.8c0-.2 0-.5.2-.7l.5-.4.8-.2 15-.4-.5-.8-1.9-3-.9-1.4"/><path fill="#00CB72" d="M109 11.6 41.8 8a1 1 0 0 0-.4.1c-.2 0-.3.1-.3.3l-.1.3.1.5L95.2 120h.2L47.8 14l-.1-.5V13l.4-.2.4-.1 59.3 3 .4.1.4.3a2.5 2.5 0 0 1 .6.7l47.4 78.4h.1l-46.2-82.7a2.7 2.7 0 0 0-1-1h-.5M37.5 13.2l-4.8-.2h-.3l-.2.2v.2l.1.3A4574.4 4574.4 0 0 1 62.6 64a577 577 0 0 1 9.5 16.6L38.4 13.8s0-.2-.2-.2a1.3 1.3 0 0 0-.4-.4h-.3"/><path fill="#00CB72" d="M93.6 55.3 85 38l10.8-.2a6.6 6.6 0 0 1 1.9.2 8 8 0 0 1 2 .7 12.1 12.1 0 0 1 3.6 2.8 16.7 16.7 0 0 1 3 4.2 17.8 17.8 0 0 1 1.3 3.4 9 9 0 0 1 .3 1.9 4.7 4.7 0 0 1-.3 1.5 3 3 0 0 1-.9 1.2 3 3 0 0 1-.6.3 5 5 0 0 1-1.6.4l-10.8.9m-1.4-23.8h-17L101.4 84l6.3-1L97 62.1l10.6-1.1a11.8 11.8 0 0 0 3.2-.8 6.7 6.7 0 0 0 2.2-1.7 5.8 5.8 0 0 0 1.2-2.4l.2-1.5a10.9 10.9 0 0 0-.3-3.4 17.9 17.9 0 0 0-1.3-3.8 32.5 32.5 0 0 0-9.8-12.2A23.7 23.7 0 0 0 96 32a16.6 16.6 0 0 0-3.7-.5"/></g></svg>